<?xml version="1.0" standalone="no"?>
<!DOCTYPE svg PUBLIC "-//W3C//DTD SVG 20010904//EN"
 "http://www.w3.org/TR/2001/REC-SVG-20010904/DTD/svg10.dtd">
<svg version="1.0" xmlns="http://www.w3.org/2000/svg"
 width="1920.000000pt" height="1080.000000pt" viewBox="0 0 1920.000000 1080.000000"
 preserveAspectRatio="xMidYMid meet">
<metadata>
Created by potrace 1.16, written by Peter Selinger 2001-2019
</metadata>
<g transform="translate(0.000000,1080.000000) scale(0.100000,-0.100000)"
fill="#000000" stroke="none">
<path d="M7410 9145 c-143 -54 -377 -141 -540 -200 -85 -31 -191 -70 -235 -87
-44 -16 -118 -43 -165 -60 -47 -16 -112 -40 -145 -53 -33 -13 -73 -28 -88 -34
-26 -10 -27 -12 -12 -35 14 -21 15 -70 9 -424 -6 -358 -9 -401 -23 -399 -9 1
-101 -26 -206 -60 -104 -34 -238 -76 -297 -94 -85 -27 -105 -36 -96 -47 11
-12 7 -1115 -7 -2527 -7 -693 -14 -1498 -20 -2310 -3 -390 -8 -787 -11 -881
-6 -167 -7 -171 -27 -166 -12 3 -25 -1 -33 -12 -10 -14 -14 -15 -21 -3 -4 7
-16 16 -26 20 -17 6 -17 8 2 29 24 25 21 32 -16 33 -20 0 -31 8 -42 30 -8 17
-18 38 -23 47 -11 24 -10 41 2 33 6 -4 7 -11 4 -17 -4 -7 -2 -8 4 -4 17 10 15
24 -8 48 -11 12 -20 29 -20 37 0 14 -2 14 -10 1 -5 -8 -5 -17 0 -20 11 -7 17
-39 8 -39 -23 -2 -29 0 -23 8 3 5 0 15 -7 23 -14 14 -21 51 -9 43 4 -2 13 5
21 15 8 10 17 17 20 15 4 -3 12 7 18 20 7 15 8 25 2 25 -16 0 -12 16 11 41
l20 24 -4 -33 c-4 -37 -2 -40 13 -12 12 22 -4 65 -19 55 -5 -2 -15 2 -22 11
-12 15 -7 24 22 36 4 2 10 13 14 26 7 23 6 23 -14 6 -11 -10 -18 -21 -15 -26
3 -4 0 -8 -5 -8 -6 0 -11 7 -11 16 0 14 -2 15 -17 3 -15 -13 -15 -12 -3 8 8
12 18 19 22 17 4 -3 8 1 8 8 0 9 3 9 10 -2 7 -11 9 -7 7 16 -1 20 -6 30 -14
27 -7 -3 -13 -9 -13 -14 0 -4 -15 1 -33 11 -19 11 -46 21 -60 22 -21 2 -27 8
-27 26 0 13 -4 20 -10 17 -6 -4 -8 -10 -5 -15 3 -5 1 -11 -5 -15 -5 -3 -10 3
-10 14 0 20 -14 26 -47 22 -6 -1 -15 4 -19 10 -5 9 -2 10 9 6 23 -8 21 3 -4
33 -15 17 -19 19 -15 7 3 -11 2 -16 -4 -12 -6 3 -10 1 -10 -6 0 -16 -13 -3
-16 16 -1 7 5 16 12 19 22 8 -5 34 -29 28 -11 -3 -17 0 -15 8 3 11 -7 14 -58
22 -6 1 -9 10 -6 21 3 13 1 18 -6 13 -6 -3 -13 3 -17 14 -3 11 -13 20 -21 20
-10 0 -12 -5 -8 -12 5 -8 1 -7 -10 1 -15 13 -16 16 -3 26 13 9 12 15 -8 39
-13 16 -28 25 -34 22 -6 -4 -11 -1 -11 7 0 8 -7 18 -16 21 -14 5 -15 4 -4 -9
18 -21 7 -19 -20 5 -17 15 -26 17 -36 9 -9 -8 -11 -6 -7 9 3 12 -2 22 -12 26
-9 3 -13 2 -10 -4 3 -6 -1 -10 -10 -10 -10 0 -15 7 -13 18 2 12 -3 17 -19 16
-13 0 -23 3 -23 8 0 4 -7 8 -15 8 -8 0 -15 6 -15 14 0 8 -13 17 -30 21 -16 4
-28 12 -27 18 1 7 -11 13 -28 15 -16 2 -42 8 -58 14 -23 9 -25 13 -15 27 7 9
8 13 4 9 -5 -4 -16 -2 -24 5 -13 9 -14 9 -8 -1 5 -8 1 -12 -12 -12 -22 0 -46
23 -35 33 3 4 -2 7 -13 7 -14 0 -16 2 -6 9 13 8 9 11 -33 20 -5 1 -13 11 -18
23 -6 16 -10 18 -22 8 -12 -10 -17 -7 -26 14 -11 23 -26 31 -51 27 -5 0 -7 2
-6 7 4 16 -15 54 -45 85 -17 17 -25 24 -17 14 11 -15 11 -17 -4 -11 -15 6 -17
12 -20 53 -1 8 -7 16 -14 19 -6 2 -12 8 -12 12 0 15 -92 110 -101 104 -5 -3
-9 0 -9 6 0 6 7 13 16 17 14 5 12 8 -7 19 -13 7 -27 10 -31 8 -5 -3 -8 0 -8 6
0 7 -7 10 -14 7 -10 -4 -13 -1 -10 7 4 11 -41 42 -57 38 -4 -1 -5 9 -2 21 4
22 4 22 -11 3 -13 -17 -18 -18 -29 -6 -9 10 -9 12 1 6 7 -4 12 -1 12 8 0 9 -4
16 -9 16 -5 0 -7 9 -4 20 3 11 1 20 -5 20 -6 0 -8 9 -5 20 3 12 0 20 -7 20 -7
0 -10 8 -7 19 4 17 0 19 -24 16 -16 -2 -29 1 -29 5 0 18 -55 37 -92 34 -32 -4
-39 -1 -54 26 -10 16 -22 30 -27 30 -4 0 -5 6 -1 13 5 7 0 6 -11 -3 -10 -8
-16 -10 -12 -4 4 6 -3 20 -16 30 -12 10 -16 12 -9 4 16 -19 15 -31 -3 -24 -8
3 -17 14 -20 25 -4 10 -15 19 -25 19 -10 0 -22 5 -25 11 -4 6 -13 8 -21 5 -8
-3 -14 -2 -14 3 0 4 -6 8 -12 9 -39 3 -54 9 -70 25 -10 9 -27 17 -39 17 -11 0
-32 13 -47 29 -16 17 -42 32 -62 36 -37 7 -63 23 -55 35 3 5 -5 6 -17 2 -16
-4 -20 -2 -15 10 4 12 -3 18 -28 22 -19 4 -41 14 -49 22 -9 8 -18 15 -21 14
-3 0 -8 0 -13 0 -4 0 -21 12 -38 27 -17 16 -44 35 -59 43 -15 8 -27 19 -26 23
1 4 -5 15 -14 23 -12 13 -13 19 -4 30 9 12 5 14 -22 14 -34 0 -62 11 -59 24 3
15 -39 56 -52 51 -9 -4 -15 0 -15 9 0 8 4 13 9 10 4 -3 8 0 8 6 0 6 5 8 10 5
5 -3 10 -1 10 4 0 6 -6 11 -14 11 -9 0 -13 7 -11 19 3 17 -12 28 -50 35 -5 1
-9 8 -7 15 1 7 -2 10 -7 7 -10 -7 -74 4 -67 11 2 2 -7 16 -20 30 -13 14 -21
29 -19 33 3 5 0 10 -7 12 -8 3 -4 12 10 26 27 27 28 36 2 29 -12 -3 -18 -1
-14 5 3 5 18 7 33 4 25 -6 25 -6 7 9 -11 8 -14 15 -8 15 7 0 12 9 12 20 0 11
6 20 13 20 9 0 8 3 -2 9 -7 5 -10 14 -7 20 5 7 2 10 -6 9 -7 -2 -14 7 -16 19
-2 15 -8 20 -19 16 -11 -4 -14 -2 -9 5 4 7 4 12 -1 13 -4 0 -17 3 -28 5 -11 3
-25 6 -32 6 -7 1 -11 4 -9 7 6 9 -21 31 -28 24 -3 -4 -6 1 -6 10 0 9 -9 22
-19 29 -11 6 -17 18 -13 26 3 9 1 13 -5 9 -5 -3 -10 1 -10 9 0 9 6 13 16 9 11
-3 10 0 -3 10 -18 14 -21 12 -40 -37 -27 -66 -70 -98 -135 -98 -87 0 -138 53
-148 154 -9 90 14 142 91 204 13 10 14 17 6 33 -6 11 -16 17 -21 13 -7 -4 -6
2 1 16 6 12 9 24 6 27 -3 4 -2 11 2 17 5 6 5 22 1 36 -4 14 -7 19 -8 12 -1 -7
-5 -11 -10 -8 -4 3 -6 -7 -5 -22 2 -15 1 -21 -2 -14 -4 9 -14 6 -37 -10 -17
-12 -27 -16 -23 -9 6 8 2 11 -10 9 -11 -2 -20 5 -23 17 -3 11 -13 20 -21 20
-10 0 -14 8 -12 24 2 15 0 21 -7 17 -6 -4 -11 -3 -11 1 0 5 9 14 20 21 12 7
17 18 13 29 -4 10 -2 14 4 10 6 -4 16 0 23 8 10 12 8 13 -11 10 -12 -2 -29 0
-38 6 -15 10 -15 10 0 6 12 -4 15 1 13 18 -3 31 -13 47 -25 40 -13 -9 -50 5
-44 16 4 5 0 9 -9 9 -9 0 -13 8 -12 25 2 13 -1 22 -5 19 -12 -7 -11 3 2 28 8
15 8 19 0 14 -6 -4 -11 -2 -11 4 0 7 -7 10 -17 6 -15 -5 -15 -4 1 9 11 8 17
16 13 16 -4 1 -10 2 -14 4 -5 1 -25 5 -45 9 -21 5 -37 11 -36 15 2 22 -4 32
-18 27 -8 -3 -25 1 -38 9 -12 8 -26 12 -29 8 -4 -3 -7 1 -7 10 0 9 -5 19 -12
23 -7 4 -8 3 -4 -4 4 -7 1 -12 -7 -12 -9 0 -14 10 -14 25 0 16 5 25 15 25 12
0 13 3 4 12 -8 8 -15 8 -26 -1 -11 -9 -16 -9 -22 0 -4 8 -3 9 4 5 7 -4 12 -4
12 1 0 12 -51 58 -64 58 -6 0 -11 11 -11 25 0 15 -5 24 -12 23 -7 -2 -13 4
-13 12 0 8 -6 15 -14 15 -8 0 -17 7 -20 16 -9 22 -8 24 11 24 15 0 14 2 -2 14
-17 12 -18 17 -6 39 8 15 19 23 27 20 8 -3 14 0 14 6 0 6 -4 11 -9 11 -5 0
-11 7 -14 14 -4 11 -1 13 10 9 9 -4 14 -2 10 3 -5 8 37 11 53 3 8 -3 24 -7 45
-9 11 -1 14 -4 8 -7 -10 -4 -10 -7 0 -17 19 -19 43 -25 58 -14 11 8 10 9 -3 4
-19 -6 -22 1 -10 21 10 16 99 12 98 -6 -1 -8 12 -14 32 -16 27 -2 35 2 48 27
14 27 19 30 62 27 79 -4 92 -1 102 26 5 14 12 25 15 25 4 0 3 -6 -1 -12 -6
-10 -5 -10 7 -1 9 8 20 9 29 3 19 -12 43 -13 36 -2 -3 5 8 6 25 4 34 -5 47
-20 28 -34 -10 -6 -7 -8 11 -6 20 2 27 -3 35 -27 8 -23 17 -31 40 -33 17 -2
39 -14 51 -28 l20 -24 3 42 c2 46 20 66 37 43 6 -8 14 -13 18 -10 3 3 2 -1 -4
-7 -13 -16 -13 -41 0 -33 6 4 7 11 4 17 -4 6 1 8 12 4 23 -6 51 13 51 36 0 9
-3 15 -7 13 -15 -9 -41 21 -34 39 6 15 14 17 48 11 60 -10 76 -8 96 10 17 15
20 15 43 0 25 -16 25 -16 20 4 -3 12 -10 21 -15 21 -5 0 -6 -5 -2 -12 4 -6 3
-8 -4 -5 -5 4 -8 16 -5 26 5 21 -25 36 -67 33 -24 -2 -23 -1 5 12 l30 14 -46
1 c-31 1 -49 -4 -52 -12 -3 -9 -21 -14 -45 -14 -31 0 -39 3 -35 15 5 11 -1 13
-33 7 -21 -3 -48 -7 -59 -9 -14 -2 -23 -14 -29 -39 -5 -20 -13 -37 -18 -37 -4
0 -18 -10 -29 -21 -12 -12 -19 -15 -17 -8 3 8 -4 25 -16 38 -11 13 -15 21 -7
16 9 -5 12 -4 7 6 -3 8 -9 21 -12 30 -5 14 -16 16 -64 12 -107 -10 -163 51
-163 177 0 116 51 180 145 180 31 0 39 3 28 10 -8 5 -11 10 -6 10 6 0 2 6 -8
13 -11 8 -17 20 -14 28 5 16 -15 39 -35 39 -7 0 -14 7 -14 15 0 8 5 12 10 8 5
-3 6 3 3 14 -4 11 -3 29 1 40 7 18 10 19 21 7 11 -12 10 -14 -5 -14 -14 0 -12
-3 7 -13 14 -7 26 -22 28 -34 2 -14 8 -20 18 -16 8 3 14 9 14 15 0 5 -6 6 -12
2 -11 -6 -11 -4 0 7 16 17 15 29 -3 29 -15 0 -10 29 8 41 15 11 -2 29 -26 28
-20 0 -21 -1 -3 -8 15 -6 16 -10 7 -15 -8 -5 -20 -2 -29 8 -16 15 -15 17 6 22
24 7 28 24 10 42 -10 10 -10 15 1 21 7 5 11 13 8 18 -3 5 -2 15 4 23 6 11 9
12 9 2 0 -9 7 -11 23 -6 32 10 33 12 7 34 -20 17 -20 20 -6 26 19 7 22 26 4
23 -25 -3 -39 1 -34 10 7 10 -49 33 -58 24 -3 -4 -6 6 -6 21 0 17 -4 25 -11
20 -6 -3 -15 -1 -19 7 -7 10 -12 10 -23 1 -12 -10 -16 -8 -21 12 -4 18 -11 23
-25 19 -24 -6 -35 11 -16 27 12 10 15 10 15 0 0 -9 10 -11 33 -6 18 3 27 2 19
-2 -8 -5 11 -8 45 -6 37 1 66 -3 81 -12 19 -13 22 -13 22 1 0 8 -7 15 -15 15
-12 0 -10 5 5 20 12 12 26 18 33 13 7 -4 6 1 -2 11 -13 16 -16 16 -26 2 -11
-14 -14 -14 -31 0 -10 9 -13 12 -5 8 10 -5 13 -2 9 12 -3 11 1 25 8 32 16 15
28 16 19 2 -3 -5 -1 -10 4 -10 14 0 14 13 -1 28 -15 15 -9 21 23 24 21 3 24
-1 24 -27 0 -23 5 -31 23 -33 12 -2 22 2 22 8 0 6 -5 8 -10 5 -6 -3 -13 2 -17
11 -4 10 -2 19 4 21 6 2 9 12 6 22 -3 10 1 22 8 26 8 5 10 4 5 -3 -4 -7 -2
-12 3 -12 6 0 11 5 11 10 0 6 11 15 25 20 26 10 34 30 12 30 -7 0 -22 -6 -32
-14 -17 -12 -23 -12 -47 0 -35 18 -45 56 -24 89 29 44 96 29 96 -22 0 -13 5
-23 10 -23 6 0 10 16 10 35 0 34 1 35 38 35 44 0 62 -14 62 -48 0 -13 4 -21
10 -17 6 4 8 15 5 26 -9 26 3 59 21 59 8 0 14 7 14 16 0 8 -4 13 -8 10 -5 -3
-9 1 -9 9 0 8 4 15 9 15 4 0 8 -5 8 -11 0 -6 7 -9 15 -5 8 3 15 1 15 -3 0 -8
9 -8 39 -2 2 1 -7 10 -20 21 -13 10 -21 19 -17 20 4 0 4 10 -1 23 -5 13 -5 30
-1 38 10 17 -4 37 -42 62 -43 27 -62 73 -62 152 -1 129 51 189 156 182 61 -3
86 -19 119 -72 11 -16 19 -24 19 -16 0 9 8 12 28 8 24 -5 27 -3 27 19 -2 32
-12 40 -20 15 -3 -12 -11 -19 -16 -15 -6 4 -1 16 12 30 21 23 24 23 46 8 23
-15 24 -14 14 4 -6 11 -7 23 -3 27 4 5 -1 5 -10 2 -10 -3 -17 -3 -17 1 3 20
-2 32 -11 27 -6 -4 -7 -11 -4 -17 4 -7 2 -8 -4 -4 -17 10 -15 14 19 35 19 12
27 21 19 26 -6 4 -20 -1 -31 -11 -24 -22 -25 -14 0 14 10 12 21 19 25 15 3 -3
6 -1 6 5 0 7 -5 12 -11 12 -6 0 -17 7 -25 15 -14 13 -14 15 1 15 15 0 13 6 -8
34 -15 18 -23 37 -19 41 4 5 -1 5 -10 2 -11 -4 -15 -2 -12 7 10 26 54 11 54
-19 0 -5 -4 -4 -9 4 -5 7 -11 9 -14 5 -7 -12 30 -57 41 -50 10 6 10 52 -1 62
-10 11 -9 36 2 29 5 -3 12 -1 15 4 6 9 -22 26 -37 22 -5 -1 -6 3 -2 9 3 5 12
10 19 10 8 0 13 12 12 30 -1 16 -6 30 -12 30 -18 0 -24 -13 -12 -27 6 -7 8
-17 4 -20 -4 -4 -11 -1 -16 7 -8 12 -13 13 -29 3 -13 -8 -22 -9 -26 -3 -3 6 0
10 7 10 14 0 49 35 47 48 -3 20 3 23 19 11 15 -13 16 -12 4 3 -8 9 -11 22 -8
27 4 5 1 13 -5 17 -8 4 -9 3 -5 -4 4 -7 2 -12 -4 -12 -6 0 -8 -4 -5 -10 3 -6
-1 -7 -9 -4 -26 10 -19 24 19 40 19 8 35 17 35 20 0 11 -30 35 -38 30 -5 -3
-20 -7 -35 -10 -19 -3 -27 0 -27 10 0 8 -9 14 -19 14 -31 0 -51 11 -44 24 3 6
1 6 -8 -1 -19 -18 -29 -16 -22 5 6 14 4 15 -9 4 -12 -10 -18 -10 -23 -1 -6 8
-9 8 -15 0 -5 -8 -15 -7 -36 4 -16 8 -54 15 -84 15 -39 0 -51 3 -40 10 13 8
12 10 -3 10 -11 0 -15 5 -11 11 4 7 -1 7 -16 -1 -17 -9 -21 -9 -15 0 5 9 2 10
-13 6 -24 -8 -62 9 -62 27 0 7 -11 12 -25 12 -18 0 -24 -4 -20 -15 4 -8 -5 -4
-19 9 -15 14 -26 19 -26 13 0 -6 -7 -9 -15 -6 -8 4 -15 15 -15 27 0 19 -1 19
-20 2 -10 -9 -25 -14 -32 -11 -41 21 -57 34 -51 39 3 4 -1 7 -10 7 -9 0 -19
-5 -22 -10 -4 -6 -11 -8 -16 -4 -5 3 -17 0 -25 -7 -13 -10 -14 -9 -10 13 4 22
0 25 -27 26 -51 1 -99 11 -113 22 -8 8 -14 8 -19 0 -5 -7 -11 -5 -20 7 -9 12
-28 18 -57 19 -52 2 -88 13 -88 26 0 6 -7 5 -15 -2 -13 -11 -20 -9 -40 10 -21
20 -25 21 -25 7 0 -9 -4 -17 -10 -17 -5 0 -10 6 -10 14 0 18 -43 26 -67 13
-16 -9 -16 -9 -5 5 11 14 11 16 -2 14 -9 -1 -19 -5 -22 -9 -4 -4 -18 0 -31 8
-13 9 -23 12 -23 9 0 -4 -8 0 -18 9 -18 17 -73 30 -124 31 -16 1 -28 4 -28 7
0 13 -38 17 -50 5 -8 -8 -13 -8 -19 2 -10 17 -69 33 -76 21 -8 -12 -42 -12
-50 1 -4 6 1 7 12 3 10 -3 15 -3 11 1 -6 8 -14 9 -105 22 -29 4 -53 10 -53 14
0 9 -48 17 -135 24 -33 2 -61 9 -63 15 -2 7 -10 8 -21 1 -13 -6 -24 -4 -40 6
-22 16 -73 26 -123 25 -17 0 -28 5 -28 13 0 9 -17 13 -60 12 -33 -1 -60 2 -60
7 0 4 -13 7 -29 7 -17 0 -33 5 -36 10 -5 8 -11 7 -21 -1 -10 -8 -14 -8 -14 0
0 6 -13 11 -29 11 -16 0 -41 4 -55 10 -17 6 -27 6 -32 -2 -5 -7 -11 -5 -20 7
-7 10 -26 18 -41 19 -15 1 -33 4 -39 8 -6 4 -23 5 -37 2 -16 -2 -38 3 -52 12
-14 9 -29 13 -33 10 -4 -4 -8 -2028 -10 -4497 l-2 -4489 3377 0 3378 0 1 143
c0 78 3 414 7 747 3 333 8 1028 10 1545 3 517 6 945 7 950 1 6 1 145 0 310 -1
165 1 723 5 1240 3 517 6 1215 6 1550 0 336 2 620 5 631 3 12 15 24 27 27 12
3 81 21 152 41 182 52 476 126 497 126 17 0 33 33 23 49 -3 5 -2 12 3 15 5 3
7 19 4 37 -3 20 0 34 9 40 10 6 11 9 2 9 -9 0 -13 22 -13 76 0 67 2 75 18 70
9 -2 62 -12 117 -21 95 -15 126 -20 255 -44 30 -5 150 -26 265 -46 322 -54
385 -65 456 -81 36 -7 133 -25 215 -38 191 -32 431 -75 461 -82 22 -6 23 -11
24 -103 1 -93 -1 -174 -4 -178 -1 -1 -25 3 -52 8 -28 5 -79 14 -115 19 -96 13
-369 59 -415 69 -35 8 -141 27 -267 46 -30 5 -36 9 -31 23 6 15 5 15 -10 3
-19 -15 -124 -9 -172 9 -19 7 -23 6 -19 -5 7 -18 71 -30 399 -80 50 -8 178
-30 285 -49 107 -19 218 -37 245 -41 124 -16 155 -25 156 -48 2 -31 -2 -251
-4 -253 -1 -1 -27 2 -57 7 -30 4 -127 19 -215 33 -301 47 -490 76 -535 82 -25
4 -96 14 -157 23 -78 12 -113 14 -113 6 0 -10 50 -19 320 -60 47 -8 204 -32
350 -55 340 -53 382 -60 398 -60 9 0 12 -35 12 -140 l0 -141 -32 5 c-18 3
-100 15 -183 26 -82 12 -178 26 -212 32 l-63 10 0 36 c0 43 -11 37 -12 -7 -1
-26 -5 -30 -22 -27 -12 3 -59 9 -106 15 -47 6 -148 20 -225 32 -77 11 -159 23
-182 26 l-43 6 2 -124 c2 -111 2 -114 5 -35 2 50 9 96 14 103 6 6 8 16 5 21
-4 7 75 1 144 -11 14 -3 75 -12 135 -22 61 -9 129 -21 152 -26 23 -5 60 -9 81
-9 29 0 44 -6 56 -22 12 -16 16 -18 12 -6 -6 19 10 19 129 2 61 -9 85 -12 150
-19 32 -4 68 -9 80 -11 11 -3 41 -7 68 -11 l47 -6 0 -140 0 -139 -32 6 c-18 4
-76 11 -128 16 -125 13 -164 21 -172 33 -9 14 -40 18 -32 5 8 -12 -41 -8 -281
23 -82 11 -212 27 -288 37 -135 17 -138 18 -134 40 2 12 0 25 -4 28 -5 3 -9
-79 -9 -183 1 -103 -1 -582 -4 -1063 -3 -481 -8 -1296 -11 -1810 -6 -1032 -12
-1764 -21 -2652 l-7 -588 5507 0 5506 0 0 1670 c0 1169 -3 1670 -11 1670 -5 0
-7 5 -3 12 5 7 3 8 -5 3 -7 -4 -11 -16 -8 -26 3 -11 1 -17 -3 -14 -5 3 -18 -4
-28 -16 -17 -18 -23 -19 -42 -9 -18 10 -21 9 -15 -1 6 -9 3 -11 -9 -6 -14 6
-16 3 -11 -13 5 -15 3 -18 -9 -14 -8 3 -24 -4 -36 -16 -12 -12 -28 -19 -35
-16 -8 3 -16 -6 -20 -22 -7 -25 -8 -26 -16 -7 -8 17 -9 15 -5 -8 2 -15 -1 -30
-5 -33 -5 -3 -9 0 -9 5 0 6 -8 11 -17 11 -12 0 -14 -3 -6 -8 7 -5 9 -13 3 -22
-7 -12 -11 -12 -27 0 -15 12 -16 12 -5 0 16 -19 15 -31 -2 -24 -8 3 -17 0 -21
-5 -3 -6 -12 -8 -18 -4 -7 4 -5 -2 3 -12 8 -10 10 -16 3 -12 -7 5 -25 1 -41
-7 -16 -8 -32 -12 -36 -9 -3 4 -6 1 -6 -6 0 -7 -4 -9 -10 -6 -5 3 -10 2 -10
-4 0 -6 -7 -8 -15 -4 -9 3 -15 2 -13 -3 2 -5 -1 -9 -7 -9 -5 0 -9 5 -7 10 1 6
-4 2 -11 -7 -8 -10 -17 -18 -21 -18 -10 0 -32 -22 -39 -40 -3 -9 -6 -10 -6 -2
-1 6 -6 12 -12 12 -5 0 -7 -6 -3 -12 6 -10 4 -10 -8 0 -17 14 -48 6 -48 -12 0
-6 -5 -4 -10 4 -6 10 -10 11 -10 2 0 -6 -3 -11 -7 -10 -5 1 -19 -4 -33 -12
-14 -8 -37 -13 -53 -11 -19 2 -27 -2 -25 -11 2 -8 -6 -13 -19 -12 -14 1 -23
-4 -23 -13 0 -11 -8 -14 -30 -11 -17 3 -33 1 -36 -4 -3 -5 -10 -6 -15 -3 -5 4
-9 -1 -9 -9 0 -10 -9 -16 -26 -16 -14 0 -23 -3 -21 -7 3 -5 -6 -8 -19 -8 -13
0 -24 3 -24 6 0 4 -7 10 -16 13 -14 5 -15 4 -4 -9 7 -8 10 -22 6 -30 -4 -13
-9 -13 -24 -4 -21 13 -57 5 -47 -11 6 -9 -8 -14 -27 -11 -5 0 -8 -3 -8 -8 0
-5 3 -11 8 -14 4 -2 0 -2 -8 1 -8 2 -33 6 -55 9 -28 3 -36 2 -26 -5 8 -6 21
-8 29 -4 10 3 13 1 8 -6 -10 -16 -53 -15 -59 1 -5 12 -8 6 -22 -39 -3 -8 -10
-12 -15 -9 -6 4 -18 1 -26 -6 -12 -10 -13 -9 -9 3 4 9 0 15 -10 15 -8 0 -15
-4 -15 -9 0 -5 -4 -6 -10 -3 -5 3 -10 0 -10 -7 0 -10 -2 -10 -9 1 -6 9 -11 10
-15 2 -4 -6 -4 -16 0 -23 5 -7 2 -9 -9 -5 -9 3 -18 -1 -21 -10 -4 -10 -15 -14
-36 -11 -17 3 -30 1 -30 -4 0 -4 -11 -8 -25 -8 -14 0 -33 -8 -43 -18 -9 -9
-25 -16 -33 -14 -9 2 -24 -4 -32 -13 -9 -8 -20 -15 -26 -15 -6 0 -11 -4 -11
-10 0 -5 -5 -10 -11 -10 -5 0 -7 5 -4 10 3 6 2 10 -3 10 -6 0 -13 -7 -16 -16
-4 -10 -14 -14 -26 -11 -11 3 -20 1 -20 -5 0 -6 -6 -8 -14 -5 -8 3 -22 -3 -32
-14 -10 -11 -24 -17 -31 -15 -7 3 -13 2 -13 -3 0 -4 -12 -7 -27 -5 -16 2 -20
1 -11 -2 14 -4 15 -8 5 -19 -6 -7 -16 -11 -20 -8 -16 10 -55 -7 -60 -27 -6
-22 8 -28 16 -7 3 6 6 2 6 -10 1 -14 -5 -24 -14 -24 -24 -2 -29 -4 -42 -12 -7
-5 -17 -5 -23 -2 -5 3 -10 1 -10 -5 0 -6 -4 -8 -10 -5 -5 3 -10 1 -10 -4 0 -6
-9 -11 -20 -11 -23 0 -82 -34 -81 -46 1 -9 -34 -15 -96 -17 -22 0 -35 -6 -39
-19 -3 -10 -10 -18 -15 -18 -6 0 -7 5 -4 10 4 6 -4 5 -19 -1 -14 -7 -23 -15
-21 -19 2 -4 -10 -7 -27 -7 -28 0 -29 1 -12 14 17 12 17 13 0 13 -10 0 -20 -9
-23 -19 -3 -12 -11 -17 -20 -14 -18 7 -83 -27 -83 -44 0 -8 -9 -12 -23 -9 -16
3 -26 -3 -34 -20 -8 -17 -8 -24 0 -24 6 0 8 -2 5 -5 -3 -3 -17 -1 -32 5 -15 5
-25 6 -22 1 3 -5 -1 -15 -10 -22 -8 -7 -14 -8 -12 -3 2 5 -1 10 -7 12 -5 1
-10 -4 -10 -10 0 -8 -14 -13 -33 -14 -37 -1 -70 -24 -36 -25 16 0 16 -2 -4
-10 -26 -10 -46 -3 -37 12 4 5 -1 9 -10 9 -9 0 -14 -4 -11 -8 2 -4 0 -14 -5
-22 -8 -13 -10 -13 -19 0 -10 13 -11 13 -9 0 3 -32 -1 -42 -16 -36 -8 3 -15 0
-15 -6 0 -6 -3 -9 -6 -5 -3 3 -16 2 -29 -3 -15 -6 -27 -4 -35 3 -9 9 -11 9 -7
1 4 -7 0 -15 -9 -18 -23 -9 -36 -7 -29 4 3 6 -1 7 -9 4 -9 -3 -16 -10 -16 -15
0 -5 -10 -9 -22 -9 -19 0 -20 2 -8 11 12 9 12 10 -3 5 -10 -3 -25 -6 -33 -6
-9 0 -12 -4 -9 -10 3 -6 -1 -7 -9 -4 -19 7 -22 -12 -3 -20 6 -3 2 -3 -10 0
-15 3 -29 -2 -44 -17 -15 -15 -24 -18 -27 -11 -6 19 -29 14 -35 -7 -2 -10 0
-27 6 -37 5 -10 6 -16 2 -11 -5 4 -17 -1 -27 -10 -16 -14 -22 -15 -40 -4 -11
7 -17 8 -13 2 5 -10 -1 -13 -21 -10 -4 0 -10 -3 -13 -8 -3 -4 -15 -15 -25 -23
-16 -12 -18 -12 -11 -1 6 11 5 12 -6 5 -8 -5 -22 -7 -31 -6 -12 2 -15 -2 -11
-20 5 -19 3 -21 -8 -10 -18 16 -29 15 -29 -3 0 -8 -6 -15 -12 -15 -7 0 -25 -6
-40 -14 -15 -8 -28 -10 -30 -5 -2 4 -13 6 -26 3 -16 -5 -21 -12 -17 -24 4 -13
-1 -19 -20 -24 -14 -4 -24 -10 -21 -15 3 -4 -5 -7 -17 -6 -12 1 -29 -3 -37
-11 -13 -11 -67 -21 -122 -23 -10 -1 -18 -5 -18 -11 0 -13 43 -13 56 0 7 7 9
-8 7 -47 -1 -32 -4 -117 -6 -188 -5 -166 -22 -198 -124 -219 -65 -14 -163 37
-163 85 0 29 37 24 65 -8 20 -24 31 -28 75 -28 62 0 90 26 90 82 0 30 -2 33
-15 20 -27 -28 -80 -39 -124 -27 -69 18 -113 94 -109 189 2 49 -5 59 -27 38
-12 -12 -15 -40 -15 -131 l0 -116 -25 0 -25 0 0 118 c-1 94 -3 114 -13 101 -7
-9 -18 -14 -26 -11 -8 3 -11 0 -7 -6 7 -12 -35 -25 -84 -26 l-35 -1 -3 -87
c-3 -86 -3 -88 -27 -88 -25 0 -25 1 -25 84 0 89 -6 100 -49 89 -19 -5 -21 -12
-21 -89 0 -83 0 -84 -25 -84 -25 0 -25 1 -25 83 l0 82 -37 0 c-24 0 -41 -6
-45 -15 -6 -13 -7 -13 -7 0 -1 11 -11 15 -36 14 -20 -1 -38 -4 -41 -7 -3 -3
19 -38 50 -79 l55 -73 -30 -3 c-35 -4 -33 -7 -141 152 -4 7 -21 -3 -43 -24
-30 -30 -35 -40 -35 -82 0 -41 -3 -48 -20 -48 -19 0 -20 7 -20 231 0 214 1
230 18 227 15 -3 18 -21 22 -156 l5 -152 59 66 58 65 -6 1202 c-3 661 -8 1312
-11 1447 -2 135 -6 672 -7 1195 l-3 949 25 6 c24 6 25 9 28 97 l3 91 -263 51
c-145 28 -324 62 -398 75 -74 14 -214 41 -310 60 -177 35 -702 136 -950 182
-74 14 -202 38 -285 54 -268 52 -667 128 -785 150 -63 11 -135 25 -160 30 -49
11 -705 136 -920 176 -74 14 -252 48 -395 75 -143 27 -321 61 -395 75 -187 34
-370 71 -465 94 -79 19 -261 55 -530 105 -77 15 -230 44 -340 66 -110 22 -222
44 -250 49 -27 6 -131 26 -230 46 -99 19 -241 46 -315 59 -74 14 -135 25 -135
25 -4 3 2 300 5 300 3 0 105 -21 225 -46 121 -25 252 -51 290 -59 39 -7 149
-29 245 -50 96 -20 306 -63 465 -96 160 -33 355 -73 434 -89 131 -27 165 -31
149 -14 -4 3 -114 27 -245 54 -397 81 -488 100 -758 157 -143 30 -303 64 -355
74 -52 10 -149 30 -215 44 -66 14 -149 32 -185 39 -48 9 -64 16 -62 27 8 33 9
140 1 144 -4 3 -6 11 -3 18 3 8 -3 13 -15 13 -17 0 -18 -2 -5 -20 17 -24 18
-36 3 -36 -5 0 -7 5 -4 10 3 6 -1 10 -9 10 -9 0 -16 -4 -16 -8 0 -5 -7 -9 -15
-9 -8 0 -12 4 -9 8 2 4 -4 10 -13 12 -16 4 -16 5 1 6 18 1 18 2 -3 25 -14 15
-19 26 -12 31 6 3 11 14 11 23 -1 14 -4 13 -19 -5 -12 -15 -17 -31 -13 -45 5
-22 5 -22 -13 -5 -11 11 -14 21 -8 25 5 4 12 14 15 23 7 17 112 59 150 59 13
0 94 -16 179 -36 138 -31 286 -64 674 -149 66 -14 181 -40 255 -57 164 -37
254 -56 475 -103 94 -19 180 -38 193 -40 12 -3 22 -2 22 3 0 4 -44 19 -97 31
-54 13 -102 26 -108 29 -5 3 -23 7 -40 9 -35 4 -116 19 -200 38 -158 36 -355
78 -396 86 -25 4 -64 12 -85 18 -21 6 -136 31 -254 57 -118 25 -305 66 -415
90 -110 24 -207 44 -215 44 -16 1 -233 -67 -262 -81 -10 -5 -25 -9 -33 -9 -8
0 -24 -6 -35 -12 -16 -10 -24 -10 -41 1 -19 11 -21 11 -16 -3 5 -12 -1 -20
-20 -27 -14 -5 -28 -7 -31 -4 -3 3 -1 5 5 5 5 0 10 6 10 14 0 11 -7 9 -28 -6
-28 -21 -49 -18 -49 7 0 8 -4 16 -8 19 -5 3 -8 -8 -7 -23 2 -27 -1 -29 -32
-28 -25 1 -32 5 -28 15 3 10 0 12 -10 8 -19 -7 -19 -4 5 39 18 32 18 35 2 35
-13 0 -14 2 -3 9 7 5 9 11 4 14 -5 3 -15 -3 -22 -15 -7 -11 -8 -17 -2 -14 5 4
12 2 16 -4 3 -5 -8 -9 -28 -8 -33 1 -34 2 -36 51 -1 28 -2 53 -3 56 -2 19 3
31 13 31 8 0 8 -4 0 -14 -9 -10 -8 -15 3 -19 9 -4 13 -1 11 6 -8 21 9 34 80
60 39 14 120 44 180 67 61 23 172 65 248 93 76 29 131 53 124 55 -8 2 -66 -16
-128 -38 -216 -79 -384 -139 -504 -180 -66 -23 -190 -67 -275 -97 -85 -31
-170 -59 -188 -63 -30 -7 -32 -6 -27 13 6 21 6 21 -9 3 -9 -10 -13 -22 -11
-27 12 -18 -21 -14 -38 5 -15 17 -18 18 -13 4 3 -10 1 -18 -4 -18 -6 0 -10 5
-10 11 0 6 -7 9 -15 5 -15 -5 -15 12 0 61 2 6 -1 13 -6 15 -6 2 -7 18 -2 42 8
36 10 38 25 23 21 -22 36 -22 34 0 -1 11 18 26 54 45 69 35 113 50 105 38 -4
-6 -1 -10 4 -10 6 0 11 7 11 17 0 9 3 13 7 10 3 -4 12 -2 19 4 8 6 21 8 30 5
9 -4 22 0 28 8 6 7 38 23 71 34 33 11 82 30 109 42 27 11 54 19 60 17 6 -2 16
2 21 9 6 7 129 57 275 112 146 55 290 111 320 124 l54 24 131 -33 c71 -18 155
-39 185 -48 62 -16 373 -92 655 -159 105 -25 204 -51 222 -56 18 -6 40 -13 50
-15 10 -2 131 -31 268 -64 138 -34 260 -64 272 -66 20 -5 41 10 30 21 -3 3
-52 16 -108 30 -57 13 -234 56 -394 94 -159 39 -364 88 -455 110 -91 21 -241
58 -335 80 -93 23 -199 48 -235 56 -63 15 -111 26 -235 56 -59 15 -61 14 -145
-17z m-6390 -1615 c0 -267 -3 -410 -10 -410 -7 0 -10 143 -10 410 0 267 3 410
10 410 7 0 10 -143 10 -410z m6700 365 c107 -20 249 -47 315 -61 115 -23 218
-43 810 -154 143 -27 303 -58 355 -69 52 -12 98 -21 103 -21 10 0 9 -280 -1
-280 -4 0 -73 13 -152 29 -80 16 -176 34 -215 41 -79 13 -94 16 -365 66 -243
46 -345 63 -392 69 -20 2 -76 11 -125 20 -48 9 -99 19 -113 21 -14 3 -50 9
-80 15 -30 6 -124 23 -209 38 l-154 26 -2 145 c-1 80 0 148 2 152 2 4 9 5 16
3 7 -2 100 -20 207 -40z m-6079 -88 c55 -37 52 -114 -6 -137 -14 -6 -15 -9 -4
-9 20 -1 55 -40 62 -70 9 -38 -16 -85 -56 -104 -51 -25 -127 -22 -167 6 -39
26 -60 74 -39 88 19 12 69 11 69 0 0 -33 72 -55 98 -29 33 33 2 78 -52 78 -22
0 -26 5 -26 29 0 26 4 30 31 33 35 3 56 26 46 52 -8 21 -75 22 -83 1 -4 -10
-20 -15 -45 -15 -31 0 -39 4 -39 18 0 19 43 65 70 75 39 14 108 6 141 -16z
m459 -17 l0 -40 -75 0 c-41 0 -75 -3 -75 -7 0 -5 -3 -18 -6 -30 -6 -22 -5 -22
26 -12 38 14 96 6 121 -17 49 -44 46 -135 -6 -184 -34 -32 -118 -39 -169 -15
-33 16 -66 58 -66 85 0 19 76 11 95 -10 34 -38 95 -19 95 30 0 52 -45 76 -86
45 -10 -8 -37 -15 -60 -15 l-40 0 12 91 c7 50 15 97 18 105 4 11 30 14 111 14
l105 0 0 -40z m296 21 c109 -66 86 -308 -32 -337 -16 -4 -32 -12 -36 -18 -6
-8 -8 -8 -8 0 0 6 -18 14 -39 18 -48 7 -97 59 -107 112 -10 52 2 151 21 180
40 61 138 83 201 45z m-1376 -1701 c0 -267 -3 -410 -10 -410 -7 0 -10 143 -10
410 0 267 3 410 10 410 7 0 10 -143 10 -410z m655 260 l0 -35 -76 -3 -77 -3
-4 -30 c-4 -24 -2 -29 11 -23 9 4 35 9 58 12 37 3 47 0 72 -26 53 -53 53 -127
1 -177 -23 -22 -42 -29 -83 -33 -75 -6 -134 27 -151 86 -7 20 -4 22 36 22 32
0 46 -5 56 -20 17 -28 66 -27 86 2 21 30 20 44 -4 68 -24 24 -63 26 -80 5 -16
-19 -90 -21 -90 -2 0 47 24 183 34 190 6 4 56 6 111 5 l100 -3 0 -35z m292 20
c49 -30 68 -73 68 -160 0 -120 -49 -180 -145 -180 -96 0 -145 60 -145 180 0
120 49 180 145 180 27 0 58 -8 77 -20z m6408 -186 c28 -3 61 -7 75 -9 14 -2
99 -13 190 -26 91 -12 167 -24 170 -28 3 -3 39 -8 80 -9 41 -2 76 -7 78 -10 1
-4 23 -7 50 -7 26 1 72 -2 102 -7 30 -4 85 -10 123 -13 l67 -7 0 -139 c0 -151
3 -145 -59 -133 -19 4 -31 13 -32 23 -1 13 -2 13 -6 -2 -4 -14 -13 -16 -61
-11 -98 9 -122 15 -122 27 0 9 -2 9 -8 0 -9 -14 -29 -12 -262 17 -85 11 -161
20 -167 20 -7 0 -13 5 -13 11 0 6 -10 19 -22 30 -20 16 -20 18 -5 19 9 0 17
-5 17 -11 0 -5 5 -7 11 -3 8 4 7 9 -2 15 -12 7 -12 9 0 9 8 0 12 2 9 5 -3 3
-18 1 -33 -5 -18 -7 -25 -15 -21 -26 3 -8 2 -12 -4 -9 -6 3 -16 3 -22 -1 -9
-6 -5 -11 12 -16 17 -5 12 -6 -15 -2 -43 6 -80 9 -132 12 -18 1 -33 6 -33 12
0 5 6 7 14 4 13 -5 31 24 21 34 -3 3 -5 0 -5 -7 0 -7 -6 -11 -13 -8 -15 5 -39
-18 -29 -29 4 -4 1 -4 -7 1 -8 4 -29 8 -48 7 l-33 -1 0 143 0 144 43 -4 c23
-2 65 -6 92 -10z m-56 -323 c9 -6 10 -11 2 -15 -18 -12 16 -65 42 -66 4 0 6 3
6 8 -3 19 2 26 11 12 5 -8 12 -11 17 -7 4 5 1 12 -7 17 -8 6 -11 10 -7 10 5 0
5 5 1 12 -5 8 -9 7 -13 -4 -4 -11 -12 -13 -26 -7 -19 8 -19 8 3 15 12 3 22 10
22 15 0 4 12 2 27 -6 15 -8 30 -12 35 -9 4 3 5 -2 2 -11 -5 -11 -2 -14 10 -9
9 3 16 10 16 16 0 5 5 6 10 3 6 -4 17 -2 24 4 13 11 71 9 82 -2 8 -7 -5 -27
-16 -27 -5 0 -7 6 -4 13 3 9 -6 13 -28 12 -30 0 -33 -3 -31 -28 2 -24 0 -26
-18 -17 -13 7 -19 7 -19 0 0 -5 4 -10 8 -10 15 0 33 -51 23 -64 -6 -7 -5 -17
4 -29 12 -16 13 -16 19 -1 4 10 1 21 -6 26 -9 5 -8 8 5 8 16 0 17 2 3 15 -9
10 -14 29 -11 53 4 49 5 51 14 28 4 -12 18 -20 33 -20 15 -1 25 1 22 5 -2 4 6
9 19 13 17 5 19 8 8 15 -10 7 -7 9 12 8 14 -1 22 -6 19 -12 -3 -5 1 -4 10 2
12 11 18 9 33 -7 10 -11 25 -20 33 -20 13 0 12 3 -4 16 -17 14 -13 15 56 9
116 -10 154 -17 138 -26 -7 -5 9 -6 37 -3 41 5 362 -30 373 -40 1 -2 1 -64 0
-138 l-3 -134 -225 24 c-283 29 -273 27 -260 52 8 15 5 24 -15 46 -14 15 -25
22 -25 17 0 -6 7 -16 15 -23 10 -9 12 -17 5 -30 -5 -9 -6 -20 -3 -24 9 -9 -32
-7 -102 3 -33 5 -98 12 -145 16 -108 8 -104 7 -111 25 -3 8 -10 15 -15 16 -17
1 -49 17 -57 28 -6 7 -7 4 -4 -6 3 -9 1 -19 -6 -22 -7 -2 2 -5 18 -5 17 -1 37
-6 45 -12 11 -7 0 -9 -39 -6 -30 2 -57 9 -59 15 -2 7 1 12 8 12 6 0 8 5 4 11
-4 8 -12 3 -21 -12 l-13 -24 2 25 c2 14 8 29 13 33 6 5 1 7 -10 5 -15 -2 -20
-11 -19 -31 0 -23 -4 -27 -25 -26 -14 0 -20 3 -13 6 6 2 12 9 12 14 0 6 -4 7
-10 4 -17 -10 -11 6 8 23 10 10 13 13 6 9 -19 -13 -24 6 -22 81 1 68 2 70 29
74 22 3 30 -1 40 -21 7 -14 13 -29 13 -33 1 -3 4 -9 8 -13 8 -8 3 33 -6 55 -3
8 -20 23 -38 33 -29 17 -30 18 -12 32 22 17 25 17 43 6z m67 -320 c-3 -5 -14
-7 -24 -4 -12 3 -19 -1 -19 -10 0 -11 10 -14 35 -11 25 2 32 0 24 -8 -6 -6
-33 -13 -61 -16 -37 -3 -48 -8 -44 -18 3 -8 1 -14 -5 -14 -6 0 -13 6 -15 13
-3 6 -6 8 -6 2 0 -5 7 -19 15 -30 12 -14 18 -16 21 -7 4 10 8 10 19 1 8 -7 14
-7 14 -1 0 5 -7 12 -15 16 -23 9 -18 21 11 22 18 2 24 -2 20 -12 -3 -8 1 -14
9 -14 8 0 15 9 15 20 0 11 2 20 4 20 2 0 12 3 20 6 13 5 15 2 9 -12 -6 -18 -6
-18 14 -1 25 22 30 21 43 -3 9 -16 6 -22 -16 -36 -22 -15 -27 -15 -35 -3 -7
11 -9 11 -9 -3 0 -28 20 -31 46 -7 21 20 26 21 34 9 5 -8 10 -18 10 -22 0 -5
5 -8 11 -8 6 0 4 9 -5 22 -11 16 -13 25 -4 35 6 7 8 14 4 14 -3 1 -10 3 -16 4
-5 1 -13 3 -16 4 -4 0 -1 8 7 17 10 13 10 17 -2 25 -10 6 -7 9 14 9 29 0 34
-9 15 -28 -9 -9 -7 -16 6 -31 10 -11 15 -25 11 -30 -3 -6 0 -11 9 -11 8 0 16
-6 19 -12 2 -7 4 2 5 20 3 53 5 61 13 56 4 -2 12 3 17 12 11 20 44 12 36 -9
-3 -8 2 -17 12 -21 22 -8 33 2 14 14 -13 8 -13 10 1 10 9 0 19 -9 22 -20 3
-11 1 -18 -4 -14 -5 3 -10 -5 -10 -18 -1 -17 -2 -19 -6 -5 -2 10 -12 16 -21
15 -9 -2 -17 3 -18 10 -1 6 -2 17 -3 22 -2 21 -19 9 -30 -21 -14 -42 -15 -41
11 -33 20 6 21 5 9 -10 -15 -18 -8 -21 20 -6 13 8 19 7 19 0 0 -6 5 -8 12 -4
6 4 17 -1 25 -11 16 -23 17 -12 2 17 -10 19 -9 20 15 16 28 -6 35 9 14 30 -9
9 -9 15 1 25 11 10 13 10 7 0 -4 -8 -1 -13 8 -13 9 0 15 5 14 12 -3 14 76 12
103 -3 9 -4 19 -5 23 -1 4 3 11 0 16 -8 8 -12 10 -12 10 -1 0 11 15 12 78 7
165 -14 197 -19 204 -30 6 -8 8 -7 8 2 0 18 27 15 34 -5 6 -14 9 -15 15 -4 6
10 19 12 45 7 l36 -7 0 -141 0 -140 -47 7 c-69 10 -93 13 -243 25 -177 14
-238 19 -279 26 -18 3 -61 7 -95 9 -33 2 -101 6 -150 9 -48 3 -90 7 -92 9 -9
9 8 35 29 46 12 6 15 10 5 7 -24 -7 -29 4 -13 34 15 29 5 51 -24 49 -10 0 -7
-4 7 -9 20 -8 21 -13 11 -31 -8 -16 -13 -18 -19 -9 -5 7 -7 2 -7 -14 0 -15 4
-23 10 -19 5 3 7 0 3 -8 -3 -8 -9 -22 -12 -32 -7 -19 -50 -20 -48 -2 1 6 -7
19 -17 29 -17 17 -19 18 -19 3 0 -9 5 -17 10 -17 6 0 10 -4 10 -10 0 -5 -20
-10 -44 -10 l-44 0 -1 80 c-1 53 3 80 10 80 8 0 7 5 -2 16 -10 13 -10 17 2 25
12 8 12 10 -1 20 -13 9 -12 10 3 5 12 -4 17 0 18 17 0 12 3 16 6 10 8 -20 23
-15 16 5 -6 15 -5 15 12 -2 18 -18 19 -18 27 3 5 14 16 21 33 21 15 0 24 -4
21 -9z m234 -330 c0 -5 -12 -19 -27 -30 -16 -11 -23 -21 -16 -21 6 0 15 5 19
11 4 8 12 3 21 -12 8 -13 12 -16 9 -6 -3 11 -2 15 4 12 17 -10 11 -34 -10 -45
-11 -6 -20 -16 -20 -23 0 -7 14 3 30 21 29 31 30 33 14 58 -9 13 -14 27 -12
30 3 3 15 -14 28 -38 17 -35 21 -38 17 -15 -2 15 0 27 4 27 5 0 9 -6 9 -12 0
-9 3 -8 10 2 10 17 4 26 -25 33 -13 3 -9 5 12 6 37 1 61 -27 40 -49 -9 -10 -9
-14 1 -17 6 -3 9 -9 6 -15 -3 -5 3 -4 15 4 23 14 27 33 10 44 -8 4 -6 10 6 17
12 7 20 5 26 -4 14 -22 11 -51 -3 -43 -10 6 -10 5 -1 -7 8 -9 9 -20 3 -29 -14
-22 -12 -30 4 -24 13 5 13 2 3 -20 -15 -31 -38 -35 -32 -5 6 28 -5 45 -16 28
-7 -11 -11 -10 -22 5 -12 16 -16 17 -35 5 -22 -14 -29 -29 -13 -29 5 0 9 -11
9 -25 0 -28 -8 -31 -26 -13 -9 9 -12 9 -13 -2 -1 -8 -4 -1 -8 15 -4 21 -12 30
-26 30 -11 0 -25 9 -32 20 -10 17 -8 22 10 32 12 7 18 12 12 12 -5 1 -17 -3
-24 -8 -34 -22 -65 24 -40 59 8 12 9 10 4 -9 -5 -15 -2 -27 6 -32 23 -15 30
-10 17 12 -11 17 -10 22 5 30 9 6 15 14 12 20 -4 5 3 9 14 9 12 0 21 -4 21 -9z
m308 -25 c23 1 42 -2 42 -8 0 -5 -13 -7 -30 -3 -17 4 -30 2 -30 -3 0 -16 54
-11 73 6 17 15 17 14 11 -4 -6 -16 -5 -17 7 -6 15 14 77 16 99 2 9 -5 17 -5
20 0 10 17 49 0 43 -18 -4 -13 -3 -13 9 2 13 16 23 17 76 11 l62 -7 0 -140 0
-140 -31 6 c-17 3 -39 6 -48 6 -11 1 -8 5 9 15 15 9 19 14 10 15 -9 0 -25 -7
-36 -15 -22 -15 -87 -16 -101 -1 -4 5 -3 6 5 2 20 -12 14 3 -12 29 -13 13 -27
21 -30 18 -3 -4 3 -13 14 -20 11 -8 18 -19 15 -24 -8 -12 -55 -12 -55 0 0 16
-34 23 -45 8 -7 -9 -22 -13 -43 -9 -27 3 -32 9 -32 31 0 18 -3 22 -9 12 -6 -9
-11 -10 -15 -2 -12 18 2 29 29 23 14 -2 32 -16 40 -31 8 -14 14 -21 15 -16 0
6 -7 21 -16 33 -14 20 -14 22 0 22 21 0 20 14 -1 31 -15 12 -16 12 -10 -3 3
-10 2 -20 -3 -23 -6 -4 -10 0 -10 7 0 10 -2 10 -9 -1 -11 -17 -23 1 -15 23 6
15 18 20 37 17 10 -2 47 42 41 48 -2 3 -11 -4 -19 -15 -9 -11 -14 -14 -15 -6
0 10 -5 10 -21 2 -15 -9 -24 -8 -35 1 -8 6 -17 9 -20 6 -3 -3 4 -10 15 -17 12
-6 19 -16 15 -21 -4 -6 -13 -4 -25 7 -19 17 -20 17 -13 -1 5 -12 4 -16 -4 -11
-8 4 -10 2 -6 -8 3 -8 13 -12 22 -9 11 3 13 2 5 -4 -6 -5 -16 -20 -22 -35 -9
-23 -8 -26 5 -21 12 4 15 1 12 -13 -2 -14 -12 -19 -35 -19 -17 -1 -30 2 -28 5
2 4 -23 4 -57 2 -71 -5 -92 11 -55 41 12 10 17 16 10 13 -7 -4 -9 1 -6 14 6
23 0 25 -27 8 -16 -10 -22 -10 -32 1 -11 11 -9 13 9 9 15 -4 23 0 26 13 3 13
11 17 21 13 9 -3 16 -2 16 4 0 16 -26 22 -41 9 -11 -10 -11 -9 -1 5 10 12 10
17 1 20 -7 2 -6 8 5 17 14 12 16 11 16 -7 0 -15 5 -20 15 -16 8 4 15 1 15 -6
0 -15 46 -60 61 -60 6 0 9 13 7 29 -1 16 3 35 10 43 10 12 10 18 -1 26 -31 26
16 117 47 94 6 -5 30 -7 54 -6z m-7908 -516 c0 -267 -3 -410 -10 -410 -7 0
-10 143 -10 410 0 267 3 410 10 410 7 0 10 -143 10 -410z m635 270 c29 -27 40
-75 26 -112 -6 -16 -41 -48 -88 -80 l-78 -53 88 -3 87 -3 0 -34 0 -35 -135 0
-134 0 6 33 c12 65 48 110 125 156 46 27 60 49 47 73 -16 30 -66 23 -83 -10
-13 -24 -19 -28 -50 -24 -45 5 -47 27 -9 72 35 42 57 50 121 47 38 -3 59 -10
77 -27z m407 13 c46 -27 71 -85 70 -164 0 -110 -46 -169 -134 -177 -98 -7
-158 59 -158 175 0 90 30 151 85 173 35 15 106 11 137 -7z m6281 -30 c-7 -2
-13 -9 -13 -14 0 -11 23 -7 32 5 4 6 16 -1 28 -15 14 -16 23 -20 26 -11 8 18
44 15 44 -4 0 -8 -4 -13 -9 -10 -5 3 -11 -1 -15 -9 -3 -8 0 -17 7 -21 7 -4 9
-4 5 0 -4 5 5 19 19 32 27 25 24 28 -27 37 -14 3 -7 4 15 4 36 -1 41 -4 43
-25 2 -30 10 -42 25 -41 9 0 9 2 0 6 -7 2 -13 9 -13 14 0 6 4 8 9 5 5 -3 12 1
15 10 5 12 2 15 -9 10 -9 -3 -13 -2 -10 4 3 6 13 10 21 10 11 0 13 -6 9 -21
-5 -15 -4 -19 4 -15 6 4 11 1 11 -8 0 -8 -8 -20 -17 -25 -13 -8 -14 -10 -4
-11 11 0 10 -3 -3 -13 -10 -8 -20 -25 -21 -39 -8 -74 -35 -132 -52 -114 -4 3
2 13 13 22 18 15 18 15 -4 11 -15 -4 -22 -1 -19 6 2 7 9 12 15 12 5 0 13 3 16
8 3 4 3 5 0 3 -10 -8 -32 18 -27 31 3 7 8 11 12 9 12 -8 29 21 20 35 -7 12 -9
12 -9 0 0 -11 -5 -10 -20 4 -19 17 -22 17 -37 3 -10 -11 -13 -23 -8 -35 7 -17
8 -16 18 5 5 12 14 22 18 22 12 0 -2 -32 -23 -53 -24 -24 -23 -45 1 -23 10 10
21 14 24 9 3 -5 -8 -16 -24 -26 -30 -17 -30 -17 -29 6 3 36 1 41 -21 56 -18
11 -23 11 -30 -1 -7 -10 -9 -10 -9 0 0 21 -16 13 -28 -13 -6 -14 -17 -25 -23
-25 -8 0 -6 7 4 18 18 20 23 62 8 62 -5 0 -14 -7 -21 -15 -12 -14 -15 -11 -26
22 -16 46 -18 66 -4 58 6 -3 10 -17 10 -30 0 -12 6 -25 14 -28 9 -4 14 2 14
19 0 14 -5 21 -11 17 -6 -3 -7 -1 -3 5 12 20 26 13 26 -12 0 -13 7 -29 15 -36
12 -10 15 -10 15 0 0 9 6 8 19 -4 12 -11 21 -14 26 -7 3 6 1 11 -4 11 -6 0
-10 5 -8 12 1 8 -9 12 -25 12 -23 -1 -27 3 -26 22 3 26 18 34 18 9 0 -8 5 -15
10 -15 7 0 7 6 0 20 -6 11 -14 20 -19 20 -4 0 -18 9 -31 20 l-23 20 44 -1 c24
0 38 -3 32 -6z m289 -25 c-14 -14 -16 -38 -2 -38 5 0 7 7 4 15 -7 18 0 19 27
5 23 -13 25 -38 4 -46 -8 -4 -12 -10 -9 -16 3 -5 -2 -18 -12 -29 -16 -18 -16
-19 -1 -13 9 3 17 10 17 14 0 4 9 10 20 13 11 3 20 1 20 -5 0 -5 7 -2 16 7 11
11 26 14 43 10 20 -4 22 -3 11 5 -13 8 -12 10 5 10 16 0 17 2 5 10 -9 6 -18 6
-24 0 -6 -6 -16 -10 -24 -10 -12 0 -12 3 -2 15 8 9 8 15 2 15 -6 0 -13 -6 -15
-12 -4 -10 -8 -10 -16 2 -5 8 -7 18 -4 23 3 5 -1 13 -8 18 -10 6 -6 9 14 9 20
0 26 -4 21 -12 -5 -9 -4 -10 4 -3 8 7 46 8 109 3 54 -4 117 -8 140 -10 24 -2
43 -5 43 -8 0 -3 37 -5 83 -6 45 -1 110 -2 145 -3 l62 -1 0 -143 0 -142 -67 7
c-38 5 -81 9 -96 9 -25 1 -26 2 -10 14 10 8 15 17 10 21 -4 4 -7 2 -7 -4 0 -7
-7 -12 -15 -12 -8 0 -15 5 -15 11 0 5 -5 7 -12 3 -9 -6 -9 -9 0 -12 21 -7 13
-22 -10 -22 -13 0 -18 4 -13 8 13 9 18 42 7 42 -6 0 -12 -7 -16 -15 -3 -8 -11
-15 -18 -15 -10 0 -9 3 1 9 12 8 12 12 -2 26 -16 15 -17 15 -17 -2 0 -10 -4
-14 -8 -8 -4 6 -16 12 -26 13 -18 3 -18 2 -6 -15 9 -11 5 -10 -11 5 -31 27
-49 28 -42 2 3 -11 9 -17 14 -14 5 3 6 -2 3 -11 -10 -26 -68 -16 -72 13 -2 12
2 22 8 22 7 0 10 -7 7 -15 -4 -8 -2 -17 3 -20 6 -4 10 4 10 17 0 13 4 30 9 38
17 26 0 31 -30 9 -35 -25 -83 -20 -72 8 5 13 2 15 -23 9 -17 -4 -24 -3 -16 2
10 7 10 11 -3 22 -13 11 -15 9 -16 -11 -1 -13 -1 -27 0 -31 0 -5 -6 -8 -15 -8
-9 0 -12 -5 -8 -12 5 -9 3 -9 -7 0 -12 11 -11 15 3 26 24 17 12 27 -19 15 -32
-12 -46 -12 -38 1 3 6 1 10 -4 10 -6 0 -11 -4 -11 -10 0 -5 -10 -8 -22 -6 -13
3 -27 5 -31 5 -5 1 -5 6 -2 11 4 7 13 7 26 0 13 -7 19 -7 20 0 1 5 2 14 3 19
2 15 16 25 16 12 0 -7 5 -9 10 -6 6 4 10 3 9 -2 -5 -27 2 -31 31 -20 17 6 30
15 30 19 0 13 -38 9 -43 -4 -3 -8 -6 -6 -6 4 -1 10 -9 22 -20 27 -14 8 -21 5
-31 -14 -7 -14 -17 -25 -22 -25 -5 0 -6 5 -2 11 3 6 1 22 -6 35 -11 20 -11 27
5 44 24 27 17 31 -24 14 -33 -14 -33 -15 -16 -33 9 -11 14 -25 10 -31 -4 -7
-1 -16 6 -21 7 -4 10 -11 6 -15 -4 -4 -16 5 -28 19 -11 15 -27 27 -35 27 -8 0
-14 9 -14 20 0 11 7 20 15 20 8 0 15 5 15 11 0 5 4 8 9 5 5 -3 11 1 15 9 3 8
2 15 -3 15 -11 0 -19 31 -14 48 3 6 21 12 41 12 28 0 33 -3 24 -12z m321 -341
l18 -22 -6 22 c-5 20 -3 21 22 14 15 -4 35 -6 43 -4 13 4 13 3 0 -6 -13 -9
-13 -11 3 -11 9 0 17 5 17 10 0 13 37 13 45 0 3 -5 -3 -17 -15 -27 -11 -10
-20 -21 -20 -26 0 -5 7 -4 15 3 8 7 15 9 15 4 0 -5 6 2 13 16 15 30 38 34 134
25 l73 -7 0 -109 0 -110 -56 3 c-33 2 -59 9 -64 18 -7 12 -11 12 -25 0 -20
-16 -65 -23 -65 -9 0 6 -6 7 -14 2 -20 -11 -107 -4 -100 8 3 6 14 7 25 4 10
-4 19 -4 19 -1 0 13 -13 36 -22 36 -5 0 -7 -4 -4 -9 3 -5 -1 -11 -9 -15 -8 -3
-15 -2 -15 3 0 13 -25 9 -39 -7 -12 -12 -11 -13 8 -7 12 3 21 2 21 -4 0 -28
-49 -21 -51 8 -1 14 -2 14 -6 -1 -3 -13 -15 -17 -49 -16 -24 0 -44 5 -44 10 0
5 -4 6 -10 3 -5 -3 -10 -1 -10 5 0 6 11 8 23 6 16 -3 24 1 24 10 0 9 -7 12
-19 8 -13 -4 -18 0 -18 15 0 12 5 21 10 21 6 0 10 -5 10 -10 0 -6 6 -5 14 2
11 11 10 17 -8 42 -15 21 -17 30 -8 33 6 3 12 11 12 19 0 8 -6 11 -16 7 -12
-4 -15 -2 -12 8 3 8 14 14 24 13 12 -1 20 5 20 16 0 11 -6 15 -18 12 -10 -2
-18 0 -18 4 0 5 26 10 58 11 48 2 60 -1 75 -20z m-275 -59 c7 -7 12 -8 12 -4
0 5 7 3 15 -4 8 -7 15 -20 15 -30 0 -10 7 -23 15 -30 10 -8 15 -9 15 -2 0 6 7
9 15 6 11 -5 15 1 15 20 0 14 3 26 8 26 4 0 7 -24 7 -54 0 -39 -3 -52 -12 -49
-7 3 -13 0 -13 -6 0 -6 5 -11 10 -11 19 0 10 -16 -10 -17 -11 -1 -20 3 -20 8
0 6 -8 6 -20 -1 -15 -8 -20 -8 -20 2 0 7 10 18 22 23 29 13 33 30 7 32 -18 2
-19 0 -7 -14 11 -14 10 -15 -12 -8 -14 4 -22 4 -18 0 4 -4 0 -14 -8 -23 -12
-12 -18 -12 -24 -3 -5 10 -9 9 -13 -3 -4 -9 -11 -16 -18 -16 -6 0 -9 7 -5 15
7 19 1 19 -18 -1 -9 -9 -16 -11 -16 -4 0 6 -4 8 -10 5 -5 -3 -10 0 -10 7 0 9
-3 9 -10 -2 -7 -11 -12 -12 -21 -3 -8 8 -3 13 20 18 17 3 36 3 42 -1 7 -4 9
-3 6 2 -3 6 -2 16 4 24 7 13 9 13 9 -1 0 -11 9 -16 25 -16 36 0 40 12 15 52
l-21 35 30 -4 c17 -2 28 1 25 6 -3 5 -12 7 -19 4 -8 -3 -16 0 -19 7 -3 8 -9 7
-19 -5 -15 -19 -29 -14 -20 8 3 8 9 11 14 8 5 -3 9 0 9 5 0 14 13 14 28 -1z
m1872 -743 c377 -12 493 -15 594 -15 60 0 107 -3 104 -6 -7 -7 -248 -7 -478 0
-320 10 -341 10 -350 -3 -5 -10 -9 -9 -13 3 -5 13 -36 16 -214 17 -114 0 -284
5 -378 9 -175 8 424 4 735 -5z m-770 -40 c146 -3 393 -7 550 -11 157 -3 344
-7 415 -9 72 -2 312 -7 535 -10 223 -4 409 -11 414 -15 5 -5 -81 -7 -190 -4
-110 2 -325 6 -479 9 -154 3 -356 8 -450 10 -93 3 -307 8 -475 10 -168 3 -354
8 -415 10 -60 2 -167 4 -237 5 -83 0 -128 4 -128 11 0 6 33 8 98 5 53 -3 216
-8 362 -11z m551 -65 c52 0 180 -2 284 -4 256 -7 708 -16 824 -16 52 0 92 -3
88 -6 -7 -8 -284 -7 -649 2 -267 6 -268 6 -268 -15 0 -19 6 -21 73 -22 100 -1
597 -9 990 -16 l327 -5 0 21 c0 20 -4 21 -127 21 -69 0 -124 2 -121 5 7 8 288
8 295 1 4 -3 -3 -6 -15 -6 -15 0 -22 -6 -22 -19 0 -24 45 -27 448 -30 167 -1
308 -2 314 -4 7 -1 14 6 16 16 3 15 -5 17 -62 17 -36 0 -66 4 -66 8 0 4 33 7
73 6 39 -2 162 -3 271 -3 110 -1 197 -4 194 -7 -4 -3 -94 -5 -202 -5 -187 1
-196 0 -196 -18 0 -18 8 -19 148 -20 235 0 246 -1 239 -7 -3 -3 -91 -5 -196
-5 -162 1 -191 -1 -191 -13 0 -13 30 -15 200 -16 110 0 205 -1 212 -2 8 -2 13
6 12 20 0 12 5 22 11 22 6 0 11 -10 11 -22 l-1 -23 273 -2 c215 -1 272 1 272
11 0 13 -15 14 -239 15 -57 1 -102 4 -98 7 3 4 80 6 171 6 134 0 166 3 166 14
0 9 -13 15 -37 16 -100 5 -152 6 -337 7 -110 1 -196 4 -193 7 4 4 133 6 287 5
247 -2 280 0 280 14 0 12 -16 15 -95 15 -52 0 -95 4 -95 9 0 4 67 8 150 7 93
-1 150 -5 150 -11 0 -6 -21 -9 -51 -6 -45 3 -50 1 -47 -15 3 -15 13 -19 51
-19 26 0 47 -3 47 -7 0 -5 -22 -8 -50 -8 -38 0 -50 -4 -50 -15 0 -11 12 -15
50 -15 28 0 50 -3 50 -7 0 -5 -22 -6 -50 -5 -41 3 -50 1 -50 -12 0 -13 13 -16
79 -16 49 0 83 -4 87 -11 7 -11 -864 -7 -1471 6 -126 3 -601 10 -1055 15 -454
5 -940 12 -1080 15 -140 3 -434 8 -652 11 -219 4 -398 10 -398 15 0 5 23 9 50
9 43 0 50 3 50 20 0 17 -7 20 -52 20 -28 0 -49 2 -47 4 8 8 112 9 412 1 l297
-8 0 22 c0 18 -6 21 -42 21 -23 0 -39 3 -35 6 3 3 67 6 141 5 103 -1 136 2
136 11 0 10 2 10 9 0 5 -9 35 -13 102 -12z m-9311 -400 c0 -267 -3 -410 -10
-410 -7 0 -10 143 -10 410 0 267 3 410 10 410 7 0 10 -143 10 -410z m813 291
c29 -11 67 -49 67 -67 0 -22 -52 -23 -81 -2 -42 32 -83 8 -104 -60 l-6 -22 35
21 c45 26 94 18 133 -23 24 -25 28 -37 27 -80 0 -44 -5 -55 -32 -79 -34 -31
-87 -45 -129 -35 -45 12 -90 66 -98 120 -9 57 7 147 32 181 35 47 101 66 156
46z m-263 -171 l0 -170 -40 0 -40 0 0 110 0 110 -35 0 c-32 0 -35 2 -35 30 0
27 3 30 30 30 24 0 35 7 48 30 12 22 24 30 45 30 l27 0 0 -170z m530 40 l0
-40 40 0 c38 0 40 -2 40 -30 0 -28 -2 -30 -40 -30 l-40 0 0 -46 c0 -45 0 -45
-32 -42 -31 3 -33 6 -36 46 -3 42 -3 42 -43 42 -37 0 -39 2 -39 30 0 28 2 30
40 30 l40 0 0 40 c0 39 1 40 35 40 34 0 35 -1 35 -40z m13897 -1659 c41 -19
84 -70 98 -118 5 -20 3 -23 -22 -23 -22 0 -31 8 -43 32 -45 96 -164 98 -234 5
-28 -38 -35 -152 -12 -211 25 -64 56 -89 121 -94 79 -6 124 27 140 106 l7 32
-72 0 c-68 0 -71 1 -68 23 3 21 8 22 96 25 l92 3 0 -116 c0 -108 -1 -115 -20
-115 -16 0 -20 7 -20 32 l0 32 -27 -26 c-41 -38 -66 -48 -118 -48 -91 0 -161
56 -190 152 -19 65 -19 111 0 176 37 125 158 184 272 133z m-2298 -194 c41
-109 78 -194 82 -190 4 5 37 86 73 181 82 217 81 214 114 210 l27 -3 3 -227 2
-228 -25 0 -25 0 -2 178 -3 177 -69 -178 -69 -178 -30 3 c-30 3 -33 8 -98 176
-37 96 -70 177 -73 180 -3 3 -6 -76 -6 -176 0 -175 -1 -182 -20 -182 -19 0
-20 7 -20 231 l0 230 32 -3 c32 -3 32 -3 107 -201z m2513 -4 c3 -207 3 -208
26 -211 14 -2 22 -10 22 -23 0 -15 -7 -19 -34 -19 -62 0 -66 16 -66 252 l0
208 25 0 25 0 2 -207z m478 127 l0 -79 36 24 c47 32 100 33 145 2 48 -32 69
-79 69 -157 0 -78 -21 -125 -69 -157 -45 -31 -98 -30 -145 2 -34 23 -36 23
-36 5 0 -15 -7 -20 -25 -20 l-25 0 0 230 0 230 25 0 c25 0 25 -1 25 -80z m710
-130 l0 -210 25 0 c18 0 25 -5 25 -20 0 -16 -7 -20 -32 -20 -17 0 -40 7 -50
17 -16 15 -18 35 -18 230 l0 213 25 0 25 0 0 -210z m-3114 75 c40 -26 54 -73
54 -184 0 -90 2 -99 20 -104 11 -3 20 -13 20 -22 0 -26 -62 -16 -76 13 -11 22
-11 22 -29 2 -24 -27 -80 -43 -120 -36 -68 13 -104 67 -84 125 13 36 38 50
133 70 75 16 81 19 84 44 5 40 -29 67 -83 67 -44 0 -85 -24 -85 -50 0 -5 -11
-10 -25 -10 -29 0 -30 2 -9 41 31 62 138 85 200 44z m2234 2 c52 -35 74 -80
74 -156 1 -49 -4 -75 -20 -101 -62 -107 -207 -107 -261 0 -47 92 -18 225 57
262 49 25 110 23 150 -5z m703 -16 c32 -31 32 -32 35 -147 3 -105 6 -117 23
-121 10 -3 19 -14 19 -25 0 -28 -60 -21 -75 9 l-11 22 -26 -26 c-38 -38 -111
-43 -157 -11 -43 29 -58 68 -41 109 15 36 52 56 128 70 87 15 92 18 92 45 0
62 -96 88 -145 39 -14 -13 -25 -29 -25 -35 0 -13 -37 -13 -45 0 -10 16 24 70
58 91 50 31 128 22 170 -20z m-2191 -520 l47 -1 93 -164 93 -165 3 165 2 164
60 0 60 0 0 -255 0 -256 -67 3 -67 3 -91 153 -90 153 -6 -58 c-4 -32 -7 -102
-8 -155 l-1 -98 -55 0 -55 0 0 259 c0 242 1 259 18 256 9 -2 38 -4 64 -4z
m-1092 -46 l0 -45 -80 0 -80 0 0 -210 0 -210 -55 0 -55 0 0 210 0 210 -75 0
-75 0 0 45 0 45 210 0 210 0 0 -45z m150 -35 l0 -79 35 21 c51 30 117 21 159
-21 l31 -31 3 -160 3 -160 -55 0 -56 0 0 132 c0 108 -3 135 -17 150 -21 24
-58 23 -83 -2 -18 -18 -20 -33 -20 -150 l0 -130 -55 0 -54 0 -3 158 c-2 86 -2
201 0 255 l3 97 54 0 55 0 0 -80z m2610 -130 l0 -210 120 0 120 0 0 -45 0 -45
-175 0 -175 0 0 255 0 255 55 0 55 0 0 -210z m1642 -2 l3 -213 28 -3 c24 -3
27 -7 27 -43 l0 -39 -45 0 c-24 0 -56 5 -70 12 -50 23 -55 48 -55 283 l0 215
55 0 55 0 2 -212z m-3667 58 c45 -34 74 -95 75 -153 l0 -43 -135 0 c-79 0
-135 -4 -135 -10 0 -23 24 -59 47 -69 37 -17 59 -13 84 14 18 18 34 25 64 25
57 0 73 -12 56 -43 -45 -84 -196 -112 -283 -54 -95 65 -107 242 -21 319 62 56
183 63 248 14z m1052 9 c50 -30 81 -83 90 -156 l6 -49 -137 0 c-79 0 -136 -4
-136 -10 0 -24 25 -60 49 -70 31 -12 68 -2 90 24 20 24 121 20 121 -4 0 -19
-57 -74 -95 -91 -57 -26 -121 -24 -183 7 -43 21 -56 34 -78 80 -23 47 -26 63
-21 115 10 114 81 178 196 179 40 0 65 -7 98 -25z m1510 4 c111 -54 136 -229
44 -320 -105 -105 -286 -63 -327 77 -31 107 11 209 101 250 46 21 132 17 182
-7z m423 -1 c46 -23 90 -77 90 -109 0 -14 -10 -18 -51 -21 -47 -3 -52 -1 -65
23 -23 45 -89 54 -123 18 -26 -29 -36 -99 -18 -141 19 -46 39 -60 84 -56 32 2
40 8 53 35 14 31 18 33 68 33 48 0 52 -2 52 -24 0 -33 -39 -86 -80 -110 -47
-28 -149 -29 -203 -2 -99 49 -129 217 -55 311 50 64 167 84 248 43z m423 -3
c47 -30 61 -70 65 -184 4 -91 7 -104 23 -108 14 -4 19 -14 19 -39 0 -34 0 -34
-45 -34 -35 0 -52 6 -70 24 -21 22 -25 22 -37 9 -33 -40 -122 -54 -182 -29
-44 18 -66 52 -66 99 0 60 38 91 136 112 119 25 116 24 108 48 -10 33 -35 57
-58 57 -27 0 -66 -27 -66 -46 0 -11 -14 -14 -61 -14 -58 0 -60 1 -53 23 13 40
35 65 77 87 53 27 166 24 210 -5z m-2144 -37 c6 -29 21 -84 33 -123 l21 -70
23 85 c13 47 29 102 34 123 11 36 12 37 58 37 l47 0 34 -120 c18 -67 35 -119
36 -118 2 2 18 56 35 121 l32 117 54 0 c30 0 54 -1 54 -2 0 -2 -26 -86 -58
-188 l-57 -185 -55 0 -54 0 -31 102 c-17 56 -33 104 -36 108 -3 3 -11 -12 -17
-32 -6 -21 -20 -71 -32 -110 l-21 -73 -54 0 -53 0 -32 103 c-17 56 -42 137
-56 179 -13 42 -24 82 -24 88 0 6 23 10 53 10 l54 0 12 -52z"/>
<path d="M2275 7740 c-38 -42 -25 -179 20 -196 26 -10 61 4 73 31 24 53 11
155 -22 177 -20 14 -53 8 -71 -12z"/>
<path d="M1843 6313 c-12 -17 -18 -46 -18 -83 0 -96 54 -141 105 -90 26 26 29
143 4 178 -22 32 -69 30 -91 -5z"/>
<path d="M1945 4900 c-12 -14 -20 -40 -22 -78 -6 -84 26 -132 79 -119 32 8 48
45 48 108 0 50 -13 87 -34 101 -20 14 -53 8 -71 -12z"/>
<path d="M9420 3600 c0 -21 4 -21 105 -18 58 2 105 1 105 -2 0 -3 41 -7 92 -8
67 -2 93 0 99 10 7 10 9 10 9 1 0 -10 26 -13 95 -13 88 0 95 1 95 20 0 19 -8
19 -217 20 -120 0 -255 3 -300 6 -79 5 -83 4 -83 -16z"/>
<path d="M10616 3593 c-3 -4 -6 -12 -6 -20 0 -10 31 -13 145 -12 79 0 148 -2
153 -5 5 -3 23 -1 41 4 18 5 31 5 31 0 0 -5 77 -9 171 -9 155 0 170 1 167 17
-3 16 -30 17 -318 19 -173 1 -329 4 -347 7 -17 2 -34 2 -37 -1z"/>
<path d="M11333 3577 c-3 -5 -1 -12 3 -17 5 -4 155 -9 334 -11 284 -4 325 -2
325 11 0 13 -41 15 -300 17 -165 1 -313 4 -328 6 -15 2 -30 0 -34 -6z"/>
<path d="M12010 3562 c0 -21 3 -21 203 -22 111 -1 215 -2 232 -3 21 -1 30 3
33 16 3 16 -9 17 -160 17 -90 0 -196 3 -235 6 -70 6 -73 6 -73 -14z"/>
<path d="M16737 1609 c-61 -36 -60 -205 1 -238 26 -14 77 -14 103 -1 29 16 49
64 49 120 0 56 -20 104 -49 120 -25 13 -81 12 -104 -1z"/>
<path d="M14211 1474 c-96 -21 -126 -59 -81 -104 45 -45 141 -11 159 57 20 71
23 69 -78 47z"/>
<path d="M16387 1609 c-61 -36 -60 -205 1 -238 35 -19 89 -13 117 12 52 44 50
176 -2 217 -28 22 -86 26 -116 9z"/>
<path d="M17135 1473 c-84 -19 -109 -40 -98 -81 3 -14 18 -26 43 -33 66 -20
130 27 130 96 0 21 -5 25 -27 24 -16 -1 -37 -3 -48 -6z"/>
<path d="M17081 874 c-16 -20 -21 -41 -21 -84 0 -76 25 -110 80 -110 55 0 80
34 80 110 0 76 -25 110 -80 110 -30 0 -43 -6 -59 -26z"/>
<path d="M7985 8801 c11 -5 70 -21 130 -35 263 -61 675 -156 735 -170 36 -9
152 -36 257 -61 214 -50 203 -48 203 -37 0 8 -45 21 -155 44 -27 6 -61 14 -75
18 -14 5 -59 15 -100 24 -76 16 -209 46 -495 111 -147 34 -418 94 -490 109
-23 5 -26 4 -10 -3z"/>
<path d="M9732 7948 c2 -222 6 -292 16 -296 6 -2 12 3 12 12 0 21 21 20 158
-6 100 -20 115 -25 123 -46 9 -23 29 -22 29 2 0 11 18 10 88 -5 48 -10 97 -18
110 -19 l22 0 -20 20 c-27 27 -25 40 4 40 31 0 53 -26 40 -48 -7 -11 -7 -23 0
-39 12 -26 36 -31 36 -8 0 8 4 15 8 15 7 0 146 -29 218 -45 12 -3 24 -14 27
-25 6 -24 27 -27 27 -4 0 14 7 15 38 10 20 -3 57 -8 82 -11 l45 -4 -44 9 c-53
11 -55 13 -46 40 6 19 12 21 43 15 20 -4 45 -11 54 -16 20 -11 24 -49 6 -49
-23 0 16 -20 40 -20 15 0 22 -6 22 -20 0 -11 7 -20 15 -20 8 0 15 7 15 15 0
19 -1 19 115 -5 53 -11 98 -20 99 -20 0 0 0 76 -2 169 l-3 169 -37 7 c-20 3
-73 15 -117 25 -44 10 -141 30 -215 45 -74 15 -198 42 -275 60 -77 18 -158 36
-180 40 -22 3 -79 15 -127 26 l-87 21 -3 96 -3 97 -35 7 c-19 4 -91 19 -160
33 -69 14 -129 25 -133 25 -4 0 -6 -131 -5 -292z m154 246 c49 -9 92 -20 97
-24 6 -5 -10 -70 -17 -70 -10 0 -191 42 -198 46 -10 6 -11 58 -1 68 4 3 12 5
19 2 6 -2 52 -12 100 -22z m62 -104 c10 0 12 -9 7 -32 -4 -18 -10 -36 -14 -40
-3 -3 -44 1 -91 11 -81 16 -85 18 -88 45 -7 54 -1 56 90 35 46 -10 89 -19 96
-19z m1032 -319 c19 -5 52 -12 73 -16 l37 -6 0 -58 0 -59 -67 14 c-108 23
-103 20 -103 73 0 64 3 67 60 52z"/>
<path d="M2615 7746 c-13 -9 -20 -30 -23 -69 -7 -91 14 -137 63 -137 29 0 59
39 49 64 -4 9 -1 16 6 16 17 0 6 85 -15 117 -17 26 -52 30 -80 9z"/>
<path d="M7078 6926 c-71 -17 -128 -34 -128 -37 0 -3 11 -17 24 -30 21 -21 24
-35 27 -114 3 -87 2 -93 -35 -168 -25 -49 -35 -82 -29 -88 10 -10 41 -5 191
32 l92 23 0 208 c0 114 -3 207 -7 207 -5 -1 -65 -15 -135 -33z"/>
<path d="M2310 6401 c0 -10 7 -25 17 -32 23 -20 43 -72 43 -114 0 -34 12 -46
25 -25 4 6 11 8 16 5 5 -4 4 5 -3 20 -13 30 -1 49 22 35 13 -8 13 -10 1 -10
-11 0 -10 -4 5 -16 17 -14 17 -15 1 -10 -11 3 -16 2 -12 -4 11 -17 24 -11 40
20 31 60 0 115 -63 112 -27 -2 -45 4 -62 18 -28 25 -30 25 -30 1z"/>
<path d="M2194 6332 c-33 -22 -46 -124 -22 -177 19 -41 88 -48 88 -8 -1 17 -1
17 -11 1 -14 -24 -35 -23 -35 2 0 11 4 20 8 20 4 0 5 7 1 16 -4 10 -1 15 8 14
50 -7 56 -2 55 49 -3 71 -48 113 -92 83z"/>
<path d="M7070 5869 c-58 -10 -112 -18 -120 -19 -10 0 -5 -10 16 -29 29 -27
30 -32 33 -118 2 -84 0 -95 -34 -173 -21 -46 -33 -86 -28 -91 7 -7 259 26 270
35 1 1 5 95 9 209 l7 207 -24 -1 c-13 -1 -71 -9 -129 -20z"/>
<path d="M2276 4898 c-11 -15 -16 -45 -16 -88 0 -79 17 -110 60 -110 42 0 63
37 63 110 0 73 -21 110 -63 110 -19 0 -34 -8 -44 -22z"/>
<path d="M7080 4783 c-111 -10 -140 -15 -140 -24 0 -6 11 -21 24 -34 22 -22
25 -34 27 -112 2 -84 0 -92 -34 -160 -21 -40 -37 -79 -37 -88 0 -19 46 -20
188 -3 l102 12 0 208 0 208 -47 -2 c-27 0 -64 -3 -83 -5z"/>
<path d="M6930 3634 c0 -4 11 -21 23 -38 20 -25 24 -45 26 -105 1 -41 4 -78 6
-82 3 -3 -11 -38 -29 -77 -56 -114 -63 -107 102 -110 l142 -3 0 73 c0 40 2
134 3 208 l2 135 -137 3 c-76 1 -138 -1 -138 -4z"/>
<path d="M6930 2346 c0 -13 33 -71 44 -78 7 -5 3 -8 -9 -8 -19 -1 -19 -1 -2
-14 13 -10 17 -28 17 -83 0 -59 -5 -80 -36 -142 -21 -43 -32 -77 -27 -82 9 -9
271 -35 278 -27 2 2 5 95 7 208 l3 205 -45 6 c-82 12 -230 21 -230 15z"/>
<path d="M15302 1595 c-18 -16 -26 -34 -30 -73 -6 -64 11 -108 49 -127 35 -19
53 -19 88 -1 35 19 51 55 51 117 0 43 -5 55 -30 80 -23 24 -37 29 -67 27 -20
-1 -48 -12 -61 -23z"/>
<path d="M6910 1095 c0 -3 9 -24 21 -47 18 -36 19 -40 4 -34 -12 4 -9 -3 9
-25 21 -25 26 -41 26 -87 0 -57 -3 -65 -53 -154 l-27 -48 23 -14 c12 -8 69
-24 127 -35 58 -12 115 -24 127 -27 21 -6 22 -3 25 81 2 47 1 143 -2 213 l-5
126 -120 28 c-120 28 -155 33 -155 23z"/>
</g>
</svg>
